<svg xmlns="http://www.w3.org/2000/svg" viewBox="0 0 695.963 470.07" version="1"><path stroke-linejoin="round" d="M497.69 303.1c.024 82.702-67.013 149.76-149.71 149.76-82.7 0-149.74-67.056-149.71-149.76-.025-82.702 67.012-149.76 149.71-149.76 82.7.01 149.74 67.06 149.71 149.76z" stroke="#010101" stroke-linecap="round" stroke-width="6" fill="#794522"/><path stroke-linejoin="round" d="M324.03 375.21c-8.482 8.43 2.326 39.79 7.615 40.62.566-8.41 2.96-12.867 9.145-19.615.363 10.06 5.273 22.746 13.8 26.562-2.83-7.944-3.47-17.24 2.88-27.796 4.6 8.205 7.9 14.63 17.486 15.837-4.83-9.832-.63-27.697.11-35.34" stroke="#010101" stroke-linecap="round" stroke-width="4" fill="#794522"/><path stroke-linejoin="round" d="M459.84 237.43c0-5.553-.22-11.02-.66-16.38-.297-9.03-1.64-17.79-3.916-26.162-3.764-13.85-10.088-26.617-18.4-37.783 5.332-3.255 10.117-8.715 13.16-15.7 6.283-14.432 2.922-45.315 2.922-45.315s-35.147 14.116-41.43 28.547c-.907 2.082-1.604 4.184-2.11 6.272-16.756-11.26-36.69-18.06-58.16-18.69-1.082-.02-2.167-.04-3.267-.04-.23 0-.452-.002-.68-.004-22.453.13-43.326 7-60.758 18.704-.506-2.08-1.2-4.17-2.102-6.243-6.283-14.432-41.432-28.547-41.432-28.547s-3.36 30.883 2.924 45.314c3.036 6.973 7.81 12.425 13.128 15.682-8.325 11.18-14.657 23.965-18.422 37.834-2.366 8.717-3.73 17.855-3.942 27.28-.38 4.994-.582 10.072-.582 15.23 0 30.134 14.564 60.524 33.906 85.233-.317 2.117-.494 4.268-.494 6.447 0 32.31 35.818 58.5 80 58.5s80-26.19 80-58.5c0-3.154-.352-6.248-1.01-9.268 18.06-24.17 31.31-53.41 31.31-82.41z" stroke="#010101" stroke-linecap="round" stroke-width="6" fill="#794522"/><g fill="#FBC8B4"><path d="M276.43 127.66c4.02 9.236 1.765 19.125-5.04 22.09-6.807 2.962-15.584-2.123-19.605-11.36-4.022-9.235-2.88-32.888-2.88-32.888s23.5 12.92 27.52 22.16zM419.53 127.66c-4.02 9.236-1.765 19.125 5.04 22.09 6.807 2.962 15.584-2.123 19.605-11.36 4.022-9.235 2.88-32.888 2.88-32.888s-23.5 12.92-27.52 22.16z"/></g><g stroke-linejoin="round" stroke="#010101" stroke-width="6" fill="#502E18"><path d="M122.96 28.71c17.393 13.71-18.53 27.054-9.997 32.64 6.357 4.16 20.58-11.898 28.74-5.033 11.643 9.793-5.97 21.654-.29 27.344 6.066 6.08 19.612-2.61 24.636 2.556 5.86 6.03-1.456 22.01 5.9 26.303 9.07 5.292 8.086-6.54 17.9-4.412 23.62 5.123 42.77 33.76 45.177 34.94 7.772 3.808 51.806 14.702 49.74 15.956-12.5 7.584-16.938 10.966-23.267 21.26-.95 1.547-56.394-7.84-58.086-7.074-29.472 13.334-72.822 11.844-114.91-6.875C25.722 138.39-10.466 82.7 7.674 41.925 19.307 15.78 50.447 2.118 87.847 3.038c20.93.517-25.912 20.53-3.386 30.55 14.63 6.51 27.13-13.83 38.51-4.87zM573.01 28.71c-17.39 13.71 18.528 27.054 9.995 32.64-6.355 4.16-20.576-11.898-28.737-5.033-11.64 9.793 5.97 21.654.293 27.344-6.065 6.08-19.61-2.61-24.633 2.556-5.86 6.03 1.454 22.01-5.9 26.303-9.067 5.292-8.085-6.54-17.896-4.412-23.616 5.123-42.765 33.76-45.17 34.94-7.772 3.808-51.8 14.702-49.734 15.956 12.5 7.584 16.936 10.966 23.264 21.26.95 1.547 56.387-7.84 58.08-7.074 29.467 13.334 72.81 11.844 114.89-6.875 62.772-27.924 98.957-83.615 80.818-124.39C676.646 15.78 645.51 2.118 608.115 3.038c-20.926.517 25.908 20.53 3.386 30.55-14.62 6.51-27.12-13.83-38.5-4.87z"/></g><path stroke-linejoin="round" d="M414.99 206.06c.006 17.11-13.864 30.984-30.976 30.984-17.11 0-30.98-13.874-30.974-30.984-.005-17.11 13.864-30.984 30.974-30.984 17.12-.01 30.99 13.87 30.98 30.98z" stroke="#010101" stroke-linecap="round" stroke-width="6" fill="#FFF"/><path d="M387.46 211.52c.003 5.704-4.62 10.328-10.326 10.328-5.702 0-10.325-4.625-10.324-10.328 0-5.704 4.622-10.328 10.324-10.328 5.7 0 10.33 4.63 10.33 10.33z" fill="#010101"/><g><path stroke-linejoin="round" d="M342.92 206.06c.006 17.11-13.864 30.984-30.975 30.984s-30.98-13.874-30.976-30.984c-.006-17.11 13.863-30.984 30.975-30.984 17.1-.01 30.97 13.87 30.97 30.98z" stroke="#010101" stroke-linecap="round" stroke-width="6" fill="#FFF"/><path d="M330.01 211.52c0 5.704-4.622 10.328-10.326 10.328-5.703 0-10.326-4.625-10.325-10.328-.002-5.704 4.62-10.328 10.324-10.328 5.72 0 10.34 4.63 10.34 10.33z" fill="#010101"/></g><g stroke-linejoin="round" stroke="#010101" stroke-width="6"><path d="M358.23 454.23c0 12.426 20.045 12.823 44.742 12.823s44.742.948 44.742-12.823c0-24.214-20.045-43.866-44.742-43.866s-44.74 19.66-44.74 43.87z" stroke-linecap="round" fill="#502E18"/><path d="M420.18 466.23c0-22.37-12.907-36.137-12.907-36.137s5.163 18.93 4.302 36.137h8.61z" fill-opacity=".314" fill="#010101"/><g><path d="M337.73 454.23c0 12.426-20.044 12.823-44.742 12.823-24.697 0-44.74.948-44.74-12.823 0-24.214 20.043-43.866 44.74-43.866 24.7.01 44.74 19.66 44.74 43.87z" stroke-linecap="round" fill="#502E18"/><path d="M275.78 466.23c0-22.37 12.906-36.137 12.906-36.137s-5.163 18.93-4.303 36.137h-8.61z" fill-opacity=".314" fill="#010101"/></g></g><g fill="#010101"><path d="M379.3 365.76c-4.387 7.604-12.44 11.176-17.98 7.974-5.544-3.2-6.478-11.957-2.088-19.56 4.388-7.6 12.44-11.17 17.98-7.972 5.55 3.21 6.48 11.96 2.09 19.56zM316.66 365.76c4.388 7.604 12.438 11.176 17.98 7.974 5.543-3.2 6.48-11.957 2.087-19.56-4.386-7.6-12.438-11.17-17.98-7.972-5.55 3.21-6.48 11.96-2.09 19.56z"/></g></svg>