<svg xmlns="http://www.w3.org/2000/svg" viewBox="0 0 246.996 333.724" version="1"><path stroke-linejoin="round" d="M245 204.82c.023 67.102-54.354 121.52-121.46 121.54C56.438 326.383 2.02 272.006 2 204.9v-.086c-.024-67.102 54.354-121.52 121.46-121.54 67.102-.023 121.52 54.354 121.54 121.46v.09z" stroke="#010101" stroke-linecap="round" stroke-width="4" fill="#E6E6E6"/><path d="M123.49 83.34c-24.505 0-47.314 7.255-66.406 19.75 8.65 30.482 36.665 52.844 69.906 52.844 31.773 0 58.8-20.42 68.688-48.844-20.19-14.94-45.16-23.75-72.19-23.75z" fill-opacity=".314" fill="#010101"/><path d="M123.5 83.33c-12.925 0-25.375 2.037-37.063 5.78 10.514-2.455 21.603-3.78 33.063-3.78 31.438 0 60.108 9.878 81.688 26.094-21.07-17.54-48.16-28.09-77.69-28.09zm115.06 82.37c1.595 6.488 2.438 13.188 2.438 20.063 0 55.443-54.433 100.44-121.5 100.44-56.084 0-103.31-31.46-117.28-74.188 3.724 63.725 56.628 114.31 121.28 114.31 67.067 0 121.5-54.434 121.5-121.5 0-13.67-2.26-26.84-6.44-39.12z" fill-opacity=".314" fill="#010101"/><g stroke-linejoin="round" stroke="#010101" stroke-linecap="round" stroke-width="4" fill="#E6E6E6"><path d="M72.18 257.08c-30.406 0-55.063 24.688-55.063 55.094 0 6.286 1.058 12.31 3 17.938h104.16c1.942-5.63 3-11.65 3-17.938 0-30.4-24.69-55.09-55.1-55.09z"/><path d="M67.31 314.22c0 9.666-6.604 17.5-14.75 17.5s-14.75-7.834-14.75-17.5c0-9.664 6.604-17.5 14.75-17.5 8.15 0 14.75 7.84 14.75 17.5zM104.31 314.22c0 9.666-6.604 17.5-14.75 17.5s-14.75-7.834-14.75-17.5c0-9.664 6.604-17.5 14.75-17.5 8.15 0 14.75 7.84 14.75 17.5z"/><path d="M86.81 314.22c0 9.666-6.604 17.5-14.75 17.5s-14.75-7.834-14.75-17.5c0-9.664 6.604-17.5 14.75-17.5 8.15 0 14.75 7.84 14.75 17.5z"/></g><g stroke-linejoin="round" stroke="#010101" stroke-linecap="round" stroke-width="4" fill="#E6E6E6"><path d="M182.37 257.08c-30.405 0-55.094 24.688-55.094 55.094 0 6.286 1.058 12.31 3 17.938h104.16c1.942-5.63 3-11.65 3-17.938 0-30.4-24.66-55.09-55.07-55.09z"/><path d="M180.81 314.22c0 9.666-6.604 17.5-14.75 17.5s-14.75-7.834-14.75-17.5c0-9.664 6.604-17.5 14.75-17.5 8.15 0 14.75 7.84 14.75 17.5zM217.81 314.22c0 9.666-6.604 17.5-14.75 17.5s-14.75-7.834-14.75-17.5c0-9.664 6.604-17.5 14.75-17.5 8.15 0 14.75 7.84 14.75 17.5z"/><path d="M200.31 314.22c0 9.666-6.604 17.5-14.75 17.5s-14.75-7.834-14.75-17.5c0-9.664 6.604-17.5 14.75-17.5 8.15 0 14.75 7.84 14.75 17.5z"/></g><g fill-opacity=".314" fill="#010101"><path d="M117.35 186.52c0 12.69-10.287 22.98-22.978 22.98s-22.978-10.29-22.978-22.98c0-12.69 10.287-22.977 22.978-22.977s22.98 10.29 22.98 22.98zM181.41 186.87c0 12.69-10.287 22.978-22.977 22.978s-22.98-10.287-22.98-22.978 10.288-22.978 22.98-22.978c12.69.01 22.98 10.29 22.98 22.98z"/></g><path stroke-linejoin="round" d="M138.03 174.65c-9.676-16.757-27.332-24.67-31.643-22.182-4.698 2.712-6.26 21.722 3.415 38.48 7.497 12.983 17.69 21.895 25.526 23.15-3.896 5.562-4.027 14.087.27 21.53 1.653 2.86 3.752 5.23 6.12 7.04-.907-6.98 1.612-13.562 7.09-16.724 5.478-3.162 12.44-2.052 18.026 2.223-.38-2.957-1.355-5.973-3.008-8.836-4.298-7.442-11.766-11.58-18.54-10.983 2.83-7.41.24-20.71-7.26-33.7z" stroke="#010101" stroke-width="4" fill="#C49A6B"/><path d="M122.85 158.12c3.07 3.456 6.102 7.586 8.813 12.28 9.212 15.955 11.454 31.932 5 35.657-6.453 3.726-19.163-6.202-28.375-22.156-1.807-3.13-3.336-6.24-4.594-9.28 1.053 5.264 2.996 10.893 6.125 16.313 7.495 12.983 17.694 21.9 25.53 23.156-3.896 5.562-4.047 14.087.25 21.53 1.652 2.862 3.756 5.223 6.125 7.03-.908-6.977 1.617-13.555 7.094-16.718 5.477-3.162 12.443-2.056 18.03 2.22-.38-2.958-1.378-5.95-3.03-8.814-4.298-7.443-11.76-11.597-18.532-11 2.832-7.415.246-20.704-7.25-33.688-4.15-7.19-9.78-12.72-15.18-16.53z" fill-opacity=".314" fill="#010101"/><path d="M120.49 165.58c0 1.933-1.566 3.5-3.5 3.5s-3.5-1.567-3.5-3.5 1.566-3.5 3.5-3.5 3.5 1.56 3.5 3.5z" fill="#010101"/><g stroke-linejoin="round" stroke="#010101" stroke-linecap="round" stroke-width="4" fill="#E6E6E6"><path d="M110.48 170.36c6.345 10.99 2.58 25.043-8.41 31.388-10.99 6.345-25.043 2.58-31.388-8.41-6.345-10.99-2.58-25.043 8.41-31.388 10.99-6.35 25.04-2.58 31.39 8.41z"/><path d="M97.81 187.35c4.305 2.486 6.023 7.566 3.84 11.35-2.184 3.78-7.443 4.834-11.748 2.348-4.305-2.484-6.024-7.566-3.84-11.348 2.18-3.79 7.44-4.84 11.75-2.35zM107.73 170.17c4.305 2.484 6.024 7.565 3.84 11.348-2.183 3.783-7.443 4.834-11.747 2.35-4.305-2.486-6.024-7.566-3.84-11.35 2.18-3.79 7.44-4.84 11.75-2.35z"/><path d="M107.02 181.19c4.305 2.485 6.024 7.565 3.84 11.35-2.184 3.78-7.443 4.833-11.748 2.347-4.305-2.484-6.024-7.565-3.84-11.348 2.18-3.78 7.44-4.83 11.75-2.35z"/><g><path d="M174.61 193.34c-6.345 10.99-20.397 14.755-31.388 8.41-10.99-6.346-14.756-20.398-8.41-31.39 6.345-10.99 20.397-14.754 31.387-8.41 10.99 6.34 14.76 20.4 8.41 31.39z"/><path d="M148.24 187.78c-4.305 2.485-6.023 7.566-3.84 11.35s7.443 4.833 11.748 2.348 6.023-7.566 3.84-11.35-7.45-4.83-11.75-2.35zM138.32 170.61c-4.305 2.485-6.024 7.566-3.84 11.35s7.442 4.832 11.747 2.348c4.305-2.486 6.024-7.566 3.84-11.35s-7.45-4.84-11.75-2.35z"/><path d="M139.03 181.63c-4.305 2.486-6.024 7.566-3.84 11.35 2.183 3.78 7.442 4.833 11.747 2.348s6.024-7.566 3.84-11.348c-2.19-3.79-7.45-4.84-11.75-2.35z"/></g></g><g><path stroke-linejoin="round" d="M70.84 2c-11.055 0-20.03 8.976-20.03 20.03 0 7.156 3.757 13.427 9.405 16.97-5.97 10.554-9.406 22.735-9.406 35.72 0 40.133 32.552 72.718 72.687 72.718s72.72-32.584 72.72-72.72c0-12.983-3.437-25.164-9.407-35.718 5.636-3.545 9.406-9.824 9.406-16.97 0-11.055-8.977-20.03-20.03-20.03-7.146 0-13.394 3.77-16.94 9.406C148.687 5.426 136.49 2 123.497 2c-12.99 0-25.16 3.43-35.718 9.406-3.55-5.64-9.8-9.41-16.94-9.41z" stroke="#010101" stroke-linecap="round" stroke-width="4" fill="#E6E6E6"/><path d="M107.55 104.09c5.216-5.563 27.11-5.588 31.987.695 4.63 5.966-6.954 22.947-15.993 22.25-9.02-.69-20.88-17.74-16-22.94z" fill="#010101"/><path stroke-linejoin="round" d="M166.94 60.35c0 11.3-9.16 20.46-20.46 20.46s-20.458-9.16-20.458-20.46 9.16-20.46 20.46-20.46 20.46 9.16 20.46 20.46z" stroke="#010101" stroke-linecap="round" stroke-width="1.846" fill="#FFF"/><path d="M148.13 64.28c0 3.65-2.96 6.61-6.61 6.61s-6.61-2.96-6.61-6.61c0-3.65 2.96-6.61 6.61-6.61s6.61 2.96 6.61 6.61z" fill="#010101"/><g><path stroke-linejoin="round" d="M121.61 60.35c0 11.3-9.16 20.46-20.46 20.46s-20.458-9.16-20.458-20.46 9.16-20.46 20.46-20.46 20.46 9.16 20.46 20.46z" stroke="#010101" stroke-linecap="round" stroke-width="1.846" fill="#FFF"/><path d="M113.72 64.28c0 3.65-2.96 6.61-6.61 6.61s-6.61-2.96-6.61-6.61c0-3.65 2.96-6.61 6.61-6.61s6.61 2.96 6.61 6.61z" fill="#010101"/></g><path d="M191.09 47.94c.742 4.15 1.125 8.417 1.125 12.78 0 40.135-32.584 72.72-72.72 72.72-30.637 0-56.838-19.003-67.53-45.844 6.082 34 35.792 59.844 71.53 59.844 40.136 0 72.72-32.584 72.72-72.72-.01-9.47-1.83-18.49-5.13-26.78z" fill-opacity=".314" fill="#010101"/><g stroke-linejoin="round" stroke="#010101" stroke-linecap="round" stroke-width="4" fill="#666"><path d="M176.42 10.5c-4.018 0-7.525 2.116-9.526 5.28 6.144 4.137 11.433 9.42 15.567 15.567 3.154-2.003 5.256-5.542 5.256-9.552 0-6.24-5.07-11.3-11.3-11.3zM70.79 10.5c4.018 0 7.526 2.116 9.527 5.28-6.144 4.137-11.433 9.42-15.567 15.567-3.153-2.003-5.255-5.542-5.255-9.552-.01-6.24 5.05-11.3 11.29-11.3z"/></g></g></svg>