<svg xmlns="http://www.w3.org/2000/svg" version="1" viewBox="0 0 371.329 304.117"><path d="M139.72 220.17c-46.666-44.2-76.818 6.75-107.44-10.67-25.835-20.17-6.502-50.67 8.082-63.38 27.67-24.11-8.598-14.34-11.46-13.53-8.614 2.42-43.6 47.05-17.233 81.69 36.676 48.18 69.313-6.8 113.66 24.25 37.71 26.39 13.67-17.33 14.39-18.36z" stroke="#010101" stroke-width="4" fill="#794522"/><path d="M11.67 214.27c36.674 48.19 69.315-6.78 113.67 24.27 23.79 16.66 22.98 5.39 19.34-5.45-.74 4.85-5.87 5.73-21.19-4.99C79.14 197.04 46.5 252.01 9.83 203.83c-3.712-4.87-6.206-9.94-7.732-15.06.54 8.6 3.343 17.32 9.57 25.5z" fill-opacity=".314" fill="#010101"/><path d="M342 160.92c.04 68.14-55.16 123.42-123.31 123.46-68.14.05-123.42-55.15-123.46-123.3-.005-.05-.005-.11-.005-.16-.046-68.15 55.155-123.43 123.3-123.47 68.15-.05 123.43 55.157 123.48 123.3v.17z" stroke-linejoin="round" stroke="#010101" stroke-width="4" stroke-linecap="round" fill="#794522"/><path d="M326.78 102.3c3.2 10.97 4.91 22.58 4.91 34.59 0 68.11-55.27 123.37-123.38 123.37-46.82 0-87.6-26.13-108.5-64.59 15.03 51.2 62.37 88.63 118.41 88.63 68.11 0 123.37-55.27 123.37-123.38 0-21.21-5.37-41.19-14.81-58.62z" fill-opacity=".314" fill="#010101"/><path d="M319.26 90c-11.73-12.388 74.9 82.72 42.94 116.58-24.94 26.42-47 39-56 30l6-25s28-20 19-29-19-19-19-28" stroke="#010101" stroke-width="4" stroke-linecap="round" fill="#794522"/><path d="M359.76 156.75c1.75-1 10 8.25 10 36 0 13.43-45.06 47.42-57.25 47.75 6.03-2.52 62.75-40 47.25-83.75z" fill-opacity=".314" fill="#010101"/><g><path d="M300.87 209.18c12.36-3.44 23.36 5.03 29.44 16.89 6.96 13.57 1.59 30.23-11.98 37.18-13.57 6.96-18.73-4.3-25.68-17.87-2.31-4.52-9.2-17.37-10.84-20.58-3.47-6.76-6.52-12.12.24-15.59 5.59-2.87 14.72-4.4 18.82-.03z" stroke-linejoin="round" stroke="#010101" stroke-width="4" stroke-linecap="round" fill="#a05b2c"/><path d="M298.51 253.47c8.26-1.45 15.3-8.24 15.3-8.24M291.67 244.05c10.12-8.59 20.82-10.18 20.82-10.18M287.78 233.54c5.88-10.03 15.46-8.93 15.46-8.93M282.2 222.64c4.81-9.47 13.51-7.92 13.51-7.92" stroke="#010101" stroke-width="4" stroke-linecap="round" fill="#a05b2c"/><path d="M333.16 235.12c-.74 5.14-2.82 15.49-5.84 20.62-7.44 12.67-14.53 11.19-22.84 6.71 10.88-.01 22.22-19.39 28.68-27.33z" fill-opacity=".314" fill="#010101"/></g><g><path d="M117.52 90c11.74-12.387-74.9 82.72-42.94 116.58 24.942 26.42 47 39 56 30l-6-25s-28-20-19-29 19-19 19-28" stroke="#010101" stroke-width="4" stroke-linecap="round" fill="#794522"/><path d="M135.92 209.18c-12.37-3.44-23.36 5.03-29.45 16.89-6.95 13.57-1.58 30.23 11.98 37.18 13.57 6.96 18.73-4.3 25.69-17.87 2.31-4.52 9.19-17.37 10.84-20.58 3.46-6.76 6.52-12.12-.24-15.59-5.59-2.87-14.73-4.4-18.82-.03z" stroke-linejoin="round" stroke="#010101" stroke-width="4" stroke-linecap="round" fill="#a05b2c"/><path d="M138.28 253.47c-8.27-1.45-15.3-8.24-15.3-8.24M145.11 244.05c-10.11-8.59-20.81-10.18-20.81-10.18M149 233.54c-5.88-10.03-15.45-8.93-15.45-8.93M154.58 222.64c-4.81-9.47-13.51-7.92-13.51-7.92" stroke="#010101" stroke-width="4" stroke-linecap="round" fill="#a05b2c"/><path d="M103.63 235.12c.74 5.14 2.81 15.49 5.83 20.62 7.44 12.67 14.53 11.19 22.85 6.71-10.88-.01-22.22-19.39-28.68-27.33z" fill-opacity=".314" fill="#010101"/></g><g><g stroke-linejoin="round" stroke="#010101" stroke-width="4" stroke-linecap="round"><path d="M147.31 27.978c-14.97 0-27.12 12.15-27.12 27.117 0 9.685 5.09 18.175 12.73 22.97-8.08 14.288-12.73 30.775-12.73 48.355 0 54.33 44.07 98.44 98.4 98.44s98.44-44.11 98.44-98.44c0-17.58-4.65-34.067-12.73-48.354 7.62-4.8 12.73-13.3 12.73-22.97 0-14.968-12.15-27.118-27.12-27.118-9.67 0-18.13 5.104-22.93 12.733-14.29-8.093-30.8-12.732-48.39-12.732s-34.06 4.643-48.35 12.733c-4.8-7.628-13.26-12.732-22.93-12.732z" fill="#794522"/><path d="M290.24 39.48c-5.44 0-10.19 2.866-12.9 7.148 8.32 5.602 15.48 12.755 21.08 21.075 4.26-2.712 7.11-7.503 7.11-12.93 0-8.44-6.85-15.292-15.29-15.292zM147.24 39.48c5.44 0 10.19 2.866 12.9 7.148-8.32 5.602-15.48 12.755-21.08 21.075-4.26-2.712-7.11-7.503-7.11-12.93 0-8.44 6.85-15.292 15.29-15.292z" fill="#a05b2c"/><path d="M242.86 41.785c10.33-6.026 6.85-35.613 1.94-37.745-4.41 15.867-8.82 22.16-16.5 27.138 2.18-9.828.62-23.342-6.68-29.178.74 8.4-1.88 21.043-10.68 29.662-2.39-9.097-3.06-19.628-12.04-23.207 2.21 10.73-.15 17.42-2.79 24.63" fill="#794522"/></g><path d="M275 126.97c.22-2.91.34-5.88.34-8.89v-.09c-.01-37.94-17.85-68.67-39.84-68.645-6.04.006-11.76 2.345-16.89 6.5-5.14-4.17-10.88-6.507-16.94-6.5-21.99.025-39.81 30.797-39.79 68.735v.09c0 2.98.12 5.92.34 8.8-11.9 8.92-19.12 20.67-19.11 33.56v.06c.03 27.86 33.85 47.43 75.55 47.41s75.48-19.62 75.45-47.47v-.07c-.01-12.86-7.23-24.59-19.11-33.49z" stroke-linejoin="round" stroke="#010101" stroke-width="4" stroke-linecap="round" fill="#a05b2c"/><path d="M163.61 148s20.63 27.5 55 27.5c34.38 0 55-27.5 55-27.5" stroke-linejoin="round" stroke="#010101" stroke-width="4" stroke-linecap="round" fill="none"/><g fill="#010101"><path d="M234.98 122.83c-2.29 3.98-6.5 5.84-9.4 4.17-2.89-1.67-3.38-6.25-1.09-10.22 2.29-3.98 6.5-5.84 9.4-4.17s3.38 6.25 1.09 10.22zM202.24 122.83c2.3 3.98 6.5 5.84 9.4 4.17s3.38-6.25 1.09-10.22c-2.29-3.98-6.5-5.84-9.4-4.17-2.89 1.67-3.38 6.25-1.09 10.22z"/></g><path d="M215.26 87.838c.01 11.5-9.31 20.832-20.81 20.842-11.5 0-20.83-9.314-20.84-20.814v-.028c-.01-11.5 9.31-20.83 20.81-20.84 11.5-.006 20.83 9.31 20.84 20.812v.028z" stroke-linejoin="round" stroke="#010101" stroke-width="4" stroke-linecap="round" fill="#fff"/><path d="M207.12 90.232c0 3.57-2.89 6.464-6.46 6.467-3.57 0-6.46-2.89-6.46-6.46v-.008c-.01-3.57 2.88-6.465 6.45-6.467 3.57-.003 6.47 2.89 6.47 6.458v.01z" fill="#010101"/><g><path d="M263.61 87.838c.01 11.5-9.31 20.832-20.81 20.842-11.5 0-20.83-9.314-20.84-20.814v-.028c-.01-11.5 9.31-20.83 20.81-20.84 11.5-.006 20.83 9.31 20.84 20.812v.028z" stroke-linejoin="round" stroke="#010101" stroke-width="4" stroke-linecap="round" fill="#fff"/><path d="M242.55 90.232c0 3.57-2.89 6.464-6.46 6.467-3.57 0-6.47-2.89-6.47-6.46v-.008c0-3.57 2.89-6.465 6.46-6.467 3.57-.003 6.46 2.89 6.47 6.458v.01z" fill="#010101"/></g></g><g><path d="M247.58 276c2.8-13.64 16.41-20.06 30.87-20.06 16.53 0 29.95 13.42 29.95 29.95s-13.42 15.94-29.95 15.94c-5.51 0-21.31.29-25.22.29-8.24 0-14.93.29-14.93-7.95 0-6.81 3.04-16.38 9.28-18.17z" stroke-linejoin="round" stroke="#010101" stroke-width="4" stroke-linecap="round" fill="#a05b2c"/><path d="M301.91 266.75c2.54 4.4 7 13.52 7 18.96 0 13.43-8.86 15.55-21.05 15.88 12.11-5.05 12.05-25.59 14.05-34.84z" fill-opacity=".314" fill="#010101"/><path d="M289.16 300.19c2.69-8.7-.39-18.84-.39-18.84M276.69 301.12c-3.3-14.01.47-25.12.47-25.12M264.62 300.67c-6.77-10.63-.97-19.32-.97-19.32M251.34 300.67c-6.76-9.33-.96-16.96-.96-16.96" stroke="#010101" stroke-width="4" stroke-linecap="round" fill="none"/><path d="M248.08 277.72c-2.49 2.93-3.98 6.54-3.98 10.44 0 5.64 3.08 10.65 7.86 13.9-7.95-.26-13.65-1.67-13.65-9.32 0-6.34 3.9-11.91 9.77-15.02z" fill-opacity=".314" fill="#010101"/><g><path d="M189.13 276c-2.81-13.64-16.41-20.06-30.87-20.06-16.53 0-29.95 13.42-29.95 29.95s13.42 15.94 29.95 15.94c5.5 0 21.31.29 25.22.29 8.24 0 14.92.29 14.92-7.95 0-6.81-3.03-16.38-9.27-18.17z" stroke-linejoin="round" stroke="#010101" stroke-width="4" stroke-linecap="round" fill="#a05b2c"/><path d="M147.55 300.19c-2.69-8.7.39-18.84.39-18.84M160.02 301.12c3.3-14.01-.47-25.12-.47-25.12M172.1 300.67c6.76-10.63.96-19.32.96-19.32M185.37 300.67c6.76-9.33.96-16.96.96-16.96" stroke="#010101" stroke-width="4" stroke-linecap="round" fill="none"/><path d="M188.28 277.47c2.58 2.96 4.11 6.61 4.11 10.55 0 5.69-3.19 10.76-8.15 14.04 8.25-.26 14.16-1.68 14.16-9.42 0-6.4-4.04-12.03-10.12-15.17z" fill-opacity=".314" fill="#010101"/></g></g></svg>