<svg xmlns="http://www.w3.org/2000/svg" version="1" viewBox="0 0 365.652 298.914"><path d="M1.5 236.16c-.004-12.97 10.514-23.49 23.49-23.5 12.977 0 23.496 10.53 23.493 23.5H1.5z" stroke-linejoin="round" stroke="#000" stroke-width="3" stroke-linecap="round" fill="#8bc53f"/><path d="M32.152 229.69S51.922 116.1 55.966 91.91c3.2-19.14 15.393-18.975 22.186-13.222 17.223 14.586 51.998 61.002 51.998 61.002l18-14S93.11 73.648 77.152 57.688c-9.603-9.603-25.83 1.083-32.186 20.226-7.73 23.276-28.814 137.78-28.814 137.78l16 14z" fill="#8bc53f"/><g stroke-linejoin="round" stroke="#000" stroke-width="3" stroke-linecap="round" fill="none"><path d="M14.152 220.69S38.922 108.1 42.966 83.91c3.2-19.14 19.686-38.722 36.186-22.222 15.96 15.96 68.998 64.002 68.998 64.002"/><path d="M34.152 219.69c14.97-98.33 15.89-93.33 20.814-122.78 3.966-23.71 13.588-26.82 28.186-12.222 15.96 15.962 47.998 55.002 47.998 55.002"/></g><path d="M364.15 236.16c.01-12.97-10.51-23.49-23.49-23.5-12.98 0-23.49 10.53-23.49 23.5h46.98z" stroke-linejoin="round" stroke="#000" stroke-width="3" stroke-linecap="round" fill="#8bc53f"/><path d="M333.5 229.69S313.73 116.1 309.69 91.91c-3.21-19.14-15.4-18.975-22.19-13.222-17.22 14.586-52 61.002-52 61.002l-18-14s55.04-52.042 71-68.002c9.6-9.603 25.83 1.083 32.19 20.226 7.73 23.276 28.81 137.78 28.81 137.78l-16 14z" fill="#8bc53f"/><g stroke-linejoin="round" stroke="#000" stroke-width="3" stroke-linecap="round" fill="none"><path d="M351.5 220.69S326.73 108.1 322.69 83.91C319.48 64.77 303 45.188 286.5 61.688c-15.96 15.96-69 64.002-69 64.002"/><path d="M331.5 219.69c-14.97-98.33-15.89-93.33-20.81-122.78-3.97-23.71-13.59-26.82-28.19-12.222-15.96 15.962-48 55.002-48 55.002"/></g><g stroke-linejoin="round" stroke="#000" stroke-width="3" stroke-linecap="round"><path d="M105.9 190.62c-.01 42.44 34.39 76.86 76.83 76.86 42.45 0 76.85-34.41 76.85-76.86H105.9z" fill="#f7a03a"/><path d="M105.9 190.62c-.01 25.67 34.39 63.07 76.83 63.07 42.45 0 76.85-37.4 76.85-63.07H105.9z" fill="#d37d1a"/><g fill="#8bc53f"><path d="M182.94 113.83c-42.56 0-77.05 34.57-77.04 77.19h77.04v-77.19z"/><path d="M259.75 191.02c.01-42.63-34.48-77.19-77.03-77.19v77.19h77.03z"/></g></g><g><path d="M36.584 267.68c-.004-12.97 10.515-23.5 23.49-23.5 12.978 0 23.496 10.52 23.493 23.5H36.584z" stroke-linejoin="round" stroke="#000" stroke-width="3" stroke-linecap="round" fill="#8bc53f"/><path d="M71.655 251.69l-.185-103.78c2.303-27.62 7.436-35.72 25.186-19.22 16.534 15.36 23.004 32 23.004 32l2-23s-11.47-9.64-28.004-25c-17.75-16.503-29.883-7.4-32.186 20.22l-7.814 115.78 18 3z" fill="#8bc53f"/><g stroke-linejoin="round" stroke="#000" stroke-width="3" stroke-linecap="round" fill="none"><path d="M53.655 249.69l7.814-116.78c2.302-27.62 14.435-36.722 32.185-20.22 16.535 15.36 28.005 25 28.005 25"/><path d="M71.655 251.69l-.185-103.78c2.303-27.62 7.436-35.72 25.186-19.22 16.534 15.36 22.004 34 22.004 34"/></g><g><path d="M329.07 267.68c0-12.97-10.52-23.5-23.49-23.5-12.98 0-23.5 10.52-23.5 23.5h46.99z" stroke-linejoin="round" stroke="#000" stroke-width="3" stroke-linecap="round" fill="#8bc53f"/><path d="M294 251.69l.18-103.78c-2.3-27.62-7.43-35.72-25.18-19.22-16.53 15.36-23 32-23 32l-2-23s11.47-9.64 28-25c17.75-16.502 29.88-7.4 32.18 20.22L312 248.69l-18 3z" fill="#8bc53f"/><g stroke-linejoin="round" stroke="#000" stroke-width="3" stroke-linecap="round" fill="none"><path d="M312 249.69l-7.82-116.78c-2.3-27.62-14.43-36.722-32.18-20.22-16.53 15.36-28 25-28 25"/><path d="M294 251.69l.18-103.78c-2.3-27.62-7.43-35.72-25.18-19.22-16.53 15.36-22 34-22 34"/></g></g></g><g><path d="M240.49 185.01c.01 31.85-25.81 57.68-57.67 57.68-31.85 0-57.67-25.83-57.66-57.69-.01-31.85 25.82-57.68 57.67-57.68 31.85.01 57.67 25.84 57.66 57.69z" stroke-linejoin="round" stroke="#000" stroke-width="3" stroke-linecap="round" fill="#8bc53f"/><path d="M171.09 141.5S185.09 6 60.59 6" stroke-linejoin="round" stroke="#000" stroke-width="3" stroke-linecap="round" fill="none"/><circle cy="6" cx="60.591" r="6"/><path d="M194.56 143.69s-14-135.5 110.5-135.5" stroke-linejoin="round" stroke="#000" stroke-width="3" stroke-linecap="round" fill="none"/><circle cy="8.187" cx="305.06" r="6"/><path d="M145.2 193.86c-.01 20.78 16.84 37.63 37.62 37.63 20.79.01 37.64-16.85 37.63-37.63" stroke-linejoin="round" stroke="#000" stroke-width="3" stroke-linecap="round" fill="none"/><g><path d="M246.72 146.52c.01 16.48-13.35 29.85-29.84 29.85s-29.85-13.37-29.84-29.85c-.01-16.49 13.36-29.85 29.84-29.85 16.49 0 29.85 13.37 29.84 29.85z" stroke-linejoin="round" stroke="#000" stroke-width="3" stroke-linecap="round" fill="#fff"/><path d="M220.2 151.79c0 5.49-4.46 9.95-9.95 9.95s-9.95-4.46-9.95-9.95c0-5.5 4.46-9.95 9.95-9.95 5.5 0 9.95 4.45 9.95 9.95z"/><g><path d="M178.61 146.52c.01 16.48-13.35 29.85-29.84 29.85s-29.85-13.37-29.84-29.86c-.01-16.48 13.36-29.85 29.84-29.85 16.49 0 29.85 13.37 29.84 29.86z" stroke-linejoin="round" stroke="#000" stroke-width="3" stroke-linecap="round" fill="#fff"/><path d="M166.18 151.78c0 5.5-4.45 9.95-9.95 9.95-5.49 0-9.95-4.45-9.94-9.95-.01-5.49 4.45-9.95 9.94-9.95 5.5 0 9.95 4.46 9.95 9.95z"/></g></g></g><g><path d="M89.5 297.41c-.004-12.97 10.51-23.49 23.49-23.49s23.5 10.52 23.49 23.49H89.5z" stroke-linejoin="round" stroke="#000" stroke-width="3" stroke-linecap="round" fill="#8bc53f"/><path d="M119.35 279.79l-18.07-75.07c-10.25-39.95-1.19-48.26 12.07-21.93l4-13c-18.695-31.64-40.945-28.69-35.074-1.07l22.074 115.07 15-4z" fill="#8bc53f"/><g stroke-linejoin="round" stroke="#000" stroke-width="3" stroke-linecap="round" fill="none"><path d="M104.35 283.79L82.276 168.72c-5.395-25.38 11.307-32.32 31.794-5.6 5.96 7.78 10.96 7.65 10.96 7.65"/><path d="M119.35 279.79l-18.07-75.07c-9.672-36.09-4.625-46.53 8.68-25.25 1.47 2.35 1.2 7.68 1.2 7.68"/></g><g><path d="M276.15 297.41c.01-12.97-10.51-23.49-23.49-23.49s-23.49 10.52-23.49 23.49h46.98z" stroke-linejoin="round" stroke="#000" stroke-width="3" stroke-linecap="round" fill="#8bc53f"/><path d="M246.3 279.79l18.08-75.07c10.24-39.95 1.18-48.26-12.08-21.93l-4-13c18.7-31.64 40.95-28.69 35.08-1.07L261.3 283.79l-15-4z" fill="#8bc53f"/><g stroke-linejoin="round" stroke="#000" stroke-width="3" stroke-linecap="round" fill="none"><path d="M261.3 283.79l22.08-115.07c5.39-25.38-11.31-32.32-31.8-5.6-5.96 7.78-10.96 7.65-10.96 7.65"/><path d="M246.3 279.79l18.08-75.07c9.66-36.09 4.62-46.53-8.69-25.25-1.47 2.35-1.19 7.68-1.19 7.68"/></g></g></g></svg>