<svg xmlns="http://www.w3.org/2000/svg" viewBox="0 0 361.406 322.121" version="1"><path stroke-linejoin="round" d="M287.09 175.46c-9.078-51.336-53.91-90.333-107.86-90.333S80.452 124.124 71.37 175.46s-2.977 131.54-2.047 132c3.587 1.765 7.48-2.48 11.487-7.66 1.374 8.374 4.658 16.627 5.508 13.416 1.653-6.242 3.654-25.234 7.173-26.912.028-.013.057-.023.084-.033.642-.254.14 23.93.89 25.007 4.913 7.07 3.32-11.654 5.5-17.5 1.065-2.863 1.25 8.25 9 16 3.166 3.167-4.125-20.147-2.665-21.946.217-.27 4.895 9.316 6.32 9.316 3.84 0 1.556-31.256 5-25.785 2.505 3.98.22 12.75 1.2 21.94.54 5.048 1.98 10.528 3.325 13.857 1.105 2.734 2.146 4.02 2.573 2.406.182-.688.37-1.532.56-2.49 1.882-9.375 4.318-29.734 8.78-23.318 1.673 2.41 2.42 4.822 2.86 7.135.855 4.473.543 8.563 3.452 11.47 4 4 6.703-26.54 7.977-24.923 3.35 4.252.492 16.617 1.475 25.81.982 9.192 10.32-16.618 15.236-9.546 4.914 7.07 9.617 22.817 11.795 16.972.35-.94.355-2.453.16-4.313-.844-7.96-3.188-13.636-.8-18.082 3.08-5.737 6.372 27.385 7.187 28.75.603 1.013.752-25.617 1.81-28.275 1.067-2.69 1.702 4.035 2.612 12.55.096.892.22 1.797.365 2.702 1.36 8.422 5.96 10.422 6.814 7.19 1.082-4.08 1.03-7.235 2.734-13.815 2.294-1.54 4.522-2.87 6.58-3.63 4.443 7.618 8.547 20.323 10.538 14.978.852-2.29 3.3-13.853 2.11-19.7 1.283.714 4.8 12.725 4.858 13.274.982 9.193 4.95 19.84 5.897 16.264.695-2.627 1.454-7.514 2.36-12.418 1.653-8.95 3.803-17.96 6.98-13.39 1.903 2.74 3.774 6.778 5.48 10.362 2.697 5.666 4.98 10.19 6.313 6.607.627-1.682.452-8.096.216-14.578-.26-7.18-.23-7.497 3.866-11.594 3.5 3.5 2.284 11.098 2.778 15.722.982 9.193 3.06 23.863 4.006 20.287 1.966-7.424 4.423-32.88 9.34-25.81 4.913 7.07 9.616 22.817 11.794 16.972.603-1.617.187-4.918-.527-8.775-1.48-8.002-4.252-18.414-1.93-21.277 3.44-4.242 11.85 43.053 13.817 38.104.42-1.11-5.15-143.33-5.15-143.33z" stroke="#000" stroke-linecap="round" stroke-width="4" fill="#502D16"/><path d="M264.97 164.38c0 45.175-55.12 81.837-81.838 81.837-25.718 0-81.837-36.663-81.837-81.837s24.625-81.838 81.837-81.838c57.22 0 81.84 36.67 81.84 81.84z" fill-opacity=".314"/><path stroke-linejoin="round" d="M246.67 244.13c-.883-5.23-18.014-19.403-17.154-24.8.857-5.393 14.202 6.91 13.43 1.64-.773-5.272-4.726-16.052-14.75-19.655-7.01-2.518-21.023 7.788-28.768 14.326-6.602-4.132-22.82-2.044-31.675-.367-6.657-5.965-23.517-19.486-31.434-16.642-10.026 3.604-13.98 14.384-14.753 19.655-.77 5.27 12.573-7.03 13.43-1.638.86 5.395-16.27 19.567-17.153 24.8-1.037 6.15 10.91-5.134 18.7-8.8 7.792-3.667-2.808 19.607-4.817 27.02-.968 3.57 7.792-3.665 13.24-11.136 4.58-6.28 7.93-15.86 11.87-19.942-2.786 9.475-1.653 25.238.487 25.238 3.603 0 8.64-13.126 10.988-21.083 1.36 5.51-.51 15.45.315 23.17.982 9.194 4.95 19.84 5.897 16.265 1.966-7.424 4.423-32.88 9.34-25.81 4.913 7.07 9.616 22.817 11.794 16.972 1.852-4.973-5.898-25.81-2.457-30.053.725-.893 1.535-.823 2.382-.216 2.314 9.915 8.693 30.506 10.586 12.498.117-1.118-.13-11.354-.348-15.756 4.8 2.53 8.445 14.16 13.728 21.402 5.447 7.47 14.207 14.706 13.24 11.136-2.01-7.412-12.61-30.687-4.818-27.02 7.77 3.67 19.72 14.96 18.68 8.8z" stroke="#000" stroke-linecap="round" stroke-width="4" fill="#784421"/><path stroke-linejoin="round" d="M177.67 69.37c-30.128.61-50.93 11.653-63.624 28.75-24.064-2.588-42.063 30.625-42.063 30.625s16.892 2.446 30.063-5.47c-2.398 8.713-3.563 18.107-3.563 27.907 0 45.175 56.125 81.844 81.843 81.844 26.717 0 81.844-36.67 81.844-81.844 0-9.8-1.015-18.652-3.563-27.906 13.172 7.915 30.03 5.47 30.03 5.47s-17.97-33.205-42.03-30.626c-13.06-17.595-34.707-28.75-66.28-28.75-.9-.01-1.78-.03-2.66-.01z" stroke="#000" stroke-linecap="round" stroke-width="4" fill="#502D16"/><path d="M258.89 124.37l-1.875 2.656c.25 3.076.344 6.203.344 9.375 0 45.176-55.128 81.845-81.845 81.845-20.705 0-61.095-23.756-76.062-56.594 7.616 40.247 57.17 71.376 80.874 71.376 26.717 0 81.844-36.67 81.844-81.844 0-9.4-1.07-18.42-3.28-26.82z" fill-opacity=".314"/><path stroke-linejoin="round" d="M202.64 75.48c8.542-6.8 6.1-29.266 3.66-33.406-2.44-4.14-6.08 13.352-10.352 9.803-4.272-3.55 1.278-15.978-1.02-20.137-2.705-4.89-7.543 10.28-13.643 16.195-6.104 5.914-8.494-15.49-11.595-18.59-5.758-2.99-3.258 13.193-10.152 17.194-3.992 2.315-9.37-8.605-11.2-6.534-1.83 2.068-7.905 12.3 5.49 35.77" stroke="#000" stroke-linecap="round" stroke-width="4.076" fill="#502D16"/><g stroke-linejoin="round" stroke="#000" stroke-linecap="round" stroke-width="4"><path d="M188.52 310.23c0 9.092 14.665 9.38 32.735 9.38s32.734.694 32.734-9.38c0-17.715-14.665-32.094-32.735-32.094s-32.74 14.38-32.74 32.09z" fill="#784421"/><path d="M233.84 319.02c0-16.37-9.442-26.44-9.442-26.44s3.776 13.85 3.147 26.44h6.29z" fill-opacity=".314"/><g><path d="M173.52 310.23c0 9.092-14.666 9.38-32.736 9.38-18.07 0-32.734.694-32.734-9.38 0-17.715 14.665-32.094 32.734-32.094 18.07 0 32.74 14.38 32.74 32.09z" fill="#784421"/><path d="M128.19 319.02c0-16.37 9.443-26.44 9.443-26.44s-3.777 13.85-3.148 26.44h-6.29z" fill-opacity=".314"/></g></g><path stroke-linejoin="round" d="M229.44 139.19c.004 12.52-10.145 22.67-22.662 22.67-12.52 0-22.667-10.15-22.664-22.67-.003-12.52 10.145-22.67 22.664-22.67 12.51.01 22.66 10.15 22.66 22.67z" stroke="#000" stroke-linecap="round" stroke-width="4" fill="#FFF"/><path d="M209.29 143.19c0 4.174-3.382 7.557-7.554 7.557-4.174 0-7.557-3.383-7.555-7.557 0-4.173 3.382-7.556 7.556-7.556 4.17.01 7.55 3.39 7.55 7.56z"/><g><path stroke-linejoin="round" d="M176.7 139.19c.003 12.52-10.145 22.67-22.664 22.67-12.518 0-22.666-10.15-22.662-22.67-.004-12.52 10.144-22.67 22.662-22.67 12.52.01 22.67 10.15 22.66 22.67z" stroke="#000" stroke-linecap="round" stroke-width="4" fill="#FFF"/><path d="M167.26 143.19c.002 4.174-3.38 7.557-7.554 7.557s-7.555-3.383-7.554-7.557c0-4.173 3.38-7.556 7.554-7.556s7.55 3.39 7.55 7.56z"/></g><g><path d="M196.93 203.83c-2.293 3.974-6.5 5.84-9.396 4.167-2.896-1.673-3.385-6.25-1.09-10.222 2.292-3.973 6.5-5.838 9.396-4.166s3.38 6.24 1.09 10.22zM164.19 203.83c2.292 3.974 6.5 5.84 9.396 4.167 2.896-1.673 3.385-6.25 1.09-10.222-2.293-3.973-6.5-5.838-9.396-4.166s-3.38 6.24-1.09 10.22z"/></g><g stroke-linejoin="round" stroke="#000" stroke-linecap="round" stroke-width="4" fill="#784421"><path d="M171.99 80.47c-11.537-31.025-49.657-16.323-74.68-8.223-14.393 2.983-33.918-5.833-35.747-7.663 0 0-1.196-3.99-3.622-9.956-7.277-17.9-25.626-53.582-55.948-52.612 0 0 44.82 21.37 41.445 77.496 0 0 31.876 28.322 101.24 18.644 11.56-1.62 29.79-10.12 27.31-17.69zM189.43 80.47c11.536-31.025 49.65-16.323 74.67-8.223 14.39 2.983 33.913-5.833 35.742-7.663 0 0 1.196-3.99 3.62-9.956 7.28-17.9 25.625-53.582 55.944-52.612 0 0-44.816 21.37-41.44 77.496 0 0-31.872 28.322-101.23 18.644-11.55-1.62-29.78-10.12-27.3-17.69z"/></g></svg>