<svg xmlns="http://www.w3.org/2000/svg" version="1" viewBox="0 0 275.943 429.984"><path d="M109.68 182.41c-9.44-63.58 54.4-67.86 47.22-93.17-7.48-26.323-36.52-18.885-51.62-22.662-15.113-3.777-12.885-17.733-3.78-25.18 6.92-5.667 63.55-8.73 76.8 32.734 18.44 57.678-45.33 52.878-45.33 107.02 0 46.03-22.03 1.26-23.29 1.26z" stroke="#010101" stroke-width="4" fill="#a05b2c"/><path d="M162.89 51.663c3.32 4.186 6.04 9.138 7.91 14.97 18.43 57.677-45.32 52.887-45.32 107.03 0 18.7-3.66 22.4-8.06 20.22 6.79 9.21 15.56 16.33 15.56-12.72 0-54.14 63.75-49.35 45.32-107.03-3.13-9.793-8.67-17.09-15.41-22.468z" fill-opacity=".314" fill="#010101"/><path d="M81.22 28.314C70.593 29.82 55.99 39.707 56.588 43.346c13.605-4.227 20.248-3.97 27.466-.712-8.168 3.02-17.265 10.486-18.093 18.523 4.05-3.143 10.4-6.06 17.422-6.697 2.973-.27-8.458 22.86-4.657 25.504C85.17 67.26 89.983 62.674 97.35 59.766c-3.527 7.962-4.506 19.69.683 25.885.546-4.906 2.727-11.198 6.847-16.554 1.98-2.558 17.66 20.835 21.79 18.738-8.14-11.688-9.91-18.098-8.98-25.963 5.35 6.874 15.21 13.285 23.13 11.643-3.51-2.415-9.11-7.515-11.88-12.512-1.98-3.57 26.26-4.186 26.43-8.813-14.18 1.467-20.64-.093-27.07-4.707 8.6-1.353 18.99-6.884 21.38-14.6-5.26 2.617-13.42 4.35-21.47 2.65-1.95-.413-3.9-1.025-5.79-1.876 0 0 14.26-22.523 10.38-25.054-6.07 12.89-11.43 14.815-18.71 17.94 3.29-8.063 4.61-17.015-.76-23.053-.4 4.978-2.44 11.42-6.49 16.938C104.97 22.967 88.707-.068 84.643 2.15 93.13 13.595 95.08 19.95 94.393 27.84c-5.55-6.71-15.604-12.83-23.463-10.954 6.124 3.96 13.01 11.045 10.29 11.43z" stroke-linejoin="round" stroke="#010101" stroke-width="4" stroke-linecap="round" fill="#794522"/><path d="M261.36 286.91c.04 68.14-55.16 123.42-123.31 123.47-68.14.04-123.42-55.16-123.46-123.31-.005-.05-.005-.11-.005-.16-.045-68.15 55.16-123.43 123.3-123.47 68.15-.05 123.43 55.16 123.48 123.3v.17z" stroke-linejoin="round" stroke="#010101" stroke-width="2.204" stroke-linecap="round" fill="#a05b2c"/><path d="M246.14 228.29c3.2 10.97 4.91 22.59 4.91 34.59 0 68.11-55.27 123.38-123.38 123.38-46.822 0-87.596-26.14-108.5-64.6 15.025 51.2 62.37 88.63 118.41 88.63 68.11 0 123.37-55.27 123.37-123.38 0-21.21-5.37-41.18-14.81-58.62z" fill-opacity=".314" fill="#010101"/><g><path d="M131.99 406.84c0 21.54-17.48 20.77-39.03 20.77-11.978 0-22.704.24-29.865-3.25-5.718-2.79-9.164-7.96-9.164-17.52 0-21.55 17.486-39.03 39.03-39.03 21.55 0 39.03 17.49 39.03 39.03z" stroke-linejoin="round" stroke="#010101" stroke-width="4" stroke-linecap="round" fill="#a05b2c"/><path d="M112.98 373.63c4.72 6.48 7.53 14.47 7.53 23.1 0 12.46-5.84 23.55-14.91 30.75 15.08-.58 25.91-3.7 25.91-20.63 0-14.03-7.41-26.34-18.53-33.22z" fill-opacity=".314" fill="#010101"/><g stroke="#010101" stroke-width="4" stroke-linecap="round" fill="none"><path d="M107.65 425.472c3.5-11.34-.5-24.56-.5-24.56M89.62 427.982c-4.29-18.25.62-32.73.62-32.73M71.37 426.092c-8.81-13.85-1.26-25.18-1.26-25.18"/></g><g><path d="M222.01 406.84c0 21.54-17.48 20.77-39.03 20.77-21.54 0-39.03.77-39.03-20.77s17.49-39.03 39.03-39.03c21.55 0 39.03 17.49 39.03 39.03z" stroke-linejoin="round" stroke="#010101" stroke-width="4" stroke-linecap="round" fill="#a05b2c"/><path d="M203.48 373.63c4.72 6.48 7.53 14.47 7.53 23.1 0 12.46-5.84 23.55-14.91 30.75 15.08-.58 25.91-3.7 25.91-20.63 0-14.03-7.41-26.34-18.53-33.22zM149.16 387.35c-3.31 5.73-5.21 12.41-5.21 19.5 0 17.51 11.55 20.26 27.43 20.69-15.78-6.58-23.8-22.21-22.22-40.19z" fill-opacity=".314" fill="#010101"/><g stroke="#010101" stroke-width="4" stroke-linecap="round" fill="none"><path d="M169.027 425.472c-3.5-11.34.5-24.56.5-24.56M187.057 427.982c4.29-18.25-.62-32.73-.62-32.73M205.307 426.092c8.81-13.85 1.26-25.18 1.26-25.18"/></g></g></g><g><g stroke-linejoin="round" stroke="#010101" stroke-width="4" stroke-linecap="round"><path d="M66.742 153.97c-14.965 0-27.116 12.15-27.116 27.12 0 9.68 5.088 18.17 12.733 22.97-8.084 14.29-12.734 30.78-12.734 48.35 0 54.33 44.067 98.44 98.394 98.44 54.33 0 98.44-44.11 98.44-98.44 0-17.57-4.65-34.06-12.73-48.35 7.63-4.8 12.73-13.3 12.73-22.97 0-14.97-12.15-27.12-27.11-27.12-9.68 0-18.13 5.11-22.93 12.73-14.3-8.09-30.81-12.73-48.4-12.73-17.58 0-34.06 4.64-48.35 12.73-4.798-7.62-13.255-12.73-22.928-12.73z" fill="#794522"/><path d="M209.67 165.47c-5.44 0-10.19 2.87-12.9 7.15 8.32 5.6 15.48 12.76 21.08 21.08 4.27-2.72 7.11-7.51 7.11-12.94 0-8.43-6.85-15.29-15.29-15.29zM66.674 165.47c5.438 0 10.188 2.87 12.897 7.15-8.316 5.6-15.477 12.76-21.073 21.08-4.27-2.72-7.113-7.51-7.113-12.94 0-8.43 6.853-15.29 15.29-15.29z" fill="#502e18"/><path d="M210.79 190.94c8.12-14 50.87-14.82 53.78-8.18-21.46 6.02-29.97 12.01-36.67 22.43 13.29-2.98 31.59-.92 39.52 8.93-11.38-.97-28.48 2.63-40.11 14.57 12.32 3.2 26.58 4.07 31.46 16.21-14.54-2.94-28.54 5.31-28.54 5.31 14.71-6.76 45.12 17.22 43.66 24.32-21.01-7.45-31.41-7.46-42.9-2.81 12.59 5.22 26.35 17.46 27.15 30.08-8.74-7.35-24.78-14.27-41.18-11.22 8.23 9.72 19.37 18.65 16.36 31.38-10.18-10.78-27.23-7.72-27.23-7.72 16.05 2.1 28.29 33.23 23.28 38.47-13.83-17.48-22.64-23.02-34.84-25.19 7.88 11.12 13.03 28.8 7 39.91-3.49-10.87-13.4-25.27-28.91-31.4 1.8 12.61 6.49 26.1-2.83 35.28-2.89-14.55-12.31-26.94-12.31-26.94-4.44 11.93-4.77 35.02-17.34 38.64 4.42-14.16-.21-22.62-2.8-32.69 0 0-7.24 18.53-2.83 32.69-12.57-3.62-14.89-26.71-19.33-38.64 0 0-9.61 13.06-12.71 27.56-9.178-9.32-4.286-22.74-2.3-35.31-15.593 5.89-25.72 20.14-29.375 30.96-5.866-11.21-.45-28.81 7.595-39.81-12.23 1.99-21.12 7.4-35.212 24.67-4.927-5.32 7.965-40.19 24.046-42.04 0 0-14.425.78-24.604 11.56-3.01-12.73 8.137-21.66 16.36-31.38-16.39-3.05-32.44 3.87-41.176 11.22.798-12.62 14.562-24.85 27.145-30.08-11.487-4.65-21.89-4.64-42.9 2.81-1.453-7.1 28.954-31.08 43.662-24.31 0 0-13.398-11.3-28.168-9.95 6.167-11.53 20.436-10.85 33.033-12.7-10.27-13.13-26.885-18.56-38.298-18.83 8.947-8.94 27.364-9 40.258-4.59-5.54-11.09-13.344-17.97-34.025-26.28 3.607-6.29 46.022-.84 52.575 13.97" opacity=".99" fill="#794522"/><path d="M82.857 176.92c-1.354-10.3-1.514-20.43-10.884-31.93 13.012-1.33 20.422 10.88 28.987 20.3 5.16-15.85.38-32.66-5.77-42.28 12.41 2.43 22.75 17.67 26.3 30.83 6.1-10.79 7.44-21.1 2.79-42.9 4.14-.3 12.21 12.14 16.72 25.39 3.35 9.86 9.2-25.91 16.43-25.39-4.65 21.8-3.31 32.11 2.79 42.9 3.55-13.16 13.89-28.4 26.3-30.83-6.15 9.62-10.93 26.43-5.77 42.28 8.56-9.42 15.97-21.63 28.99-20.3-9.37 11.5-9.53 21.63-10.89 31.93" opacity=".99" fill="#794522"/></g><path d="M212.69 262.89c.03 41.26-33.4 74.74-74.67 74.76-41.264.03-74.738-33.4-74.765-74.66v-.1c-.028-41.27 33.4-74.74 74.665-74.77 41.26-.03 74.74 33.4 74.77 74.67v.1z" stroke-linejoin="round" stroke="#010101" stroke-width="2.204" stroke-linecap="round" fill="#a05b2c"/><g stroke-linejoin="round" stroke="#010101" stroke-width="4.271" stroke-linecap="round" fill="none"><path d="M192.178 271.494c5.23 19.48-6.36 39.5-25.88 44.72-9.37 2.51-19.36 1.2-27.76-3.65M83.765 271.494c-5.23 19.48 6.354 39.5 25.873 44.72 9.37 2.51 19.36 1.2 27.77-3.65"/></g><path d="M154.67 287.73c0 8.83-9.67 15.99-16.07 15.99-6.89 0-16.06-7.16-16.06-15.99s7.19-11.08 16.06-11.08 16.07 2.25 16.07 11.08z" fill="#010101"/><path d="M134.25 241.9c.01 12.78-10.35 23.15-23.13 23.15-12.773.01-23.14-10.34-23.148-23.12v-.03c-.01-12.78 10.344-23.15 23.128-23.15 12.77-.01 23.14 10.34 23.15 23.12v.03z" stroke-linejoin="round" stroke="#010101" stroke-width="9.931" stroke-linecap="round" fill="#fff"/><path d="M125.21 244.56c0 3.97-3.21 7.18-7.18 7.19-3.97 0-7.18-3.21-7.19-7.18v-.01c0-3.96 3.21-7.18 7.18-7.18 3.97-.01 7.18 3.2 7.19 7.17v.01z" fill="#010101"/><g><path d="M187.97 241.9c.01 12.78-10.34 23.15-23.12 23.15-12.78.01-23.15-10.34-23.15-23.12v-.03c-.01-12.78 10.34-23.15 23.12-23.15 12.78-.01 23.14 10.34 23.15 23.12v.03z" stroke-linejoin="round" stroke="#010101" stroke-width="9.931" stroke-linecap="round" fill="#fff"/><path d="M164.57 244.56c0 3.97-3.21 7.18-7.18 7.19-3.97 0-7.18-3.21-7.19-7.18v-.01c0-3.96 3.22-7.18 7.18-7.18 3.97-.01 7.18 3.2 7.19 7.17v.01z" fill="#010101"/></g><g stroke="#010101" stroke-width="4" stroke-linecap="round" fill="none"><path d="M180.61 281.028c44.67-16.61 66.5 3.89 66.5 3.89M174.2 292.168c31.64-8.96 52.35 13.89 52.35 13.89M171.57 304.078c24.34-2.58 33.66 19.12 33.66 19.12"/><g><path d="M101.47 281.028c-44.67-16.61-66.5 3.89-66.5 3.89M107.88 292.168c-31.63-8.96-52.35 13.89-52.35 13.89M110.51 304.078c-24.34-2.58-33.65 19.12-33.65 19.12"/></g></g></g></svg>