<svg xmlns="http://www.w3.org/2000/svg" viewBox="0 0 367.291 323.996" version="1"><path d="M279.36 129s6.77 34.46 33.618 16.285c34.78-23.547 46.61-19.636 50.464-16.235 3.854 3.4.72 11.187-.888 14.883-7.59 17.47-38.28 44.744-51.913 58.827-10.235 10.575-23.308 21.95-47.89-8.692" fill="#8B5D3B"/><path d="M261.19 195.32c-.69-.862-.553-2.12.31-2.813.86-.694 2.118-.555 2.81.307 11.75 14.656 20.513 19.104 27.028 19.07 6.944.05 12.61-5.057 17.866-10.518 6.882-7.106 17.938-17.42 28.218-28.136 10.27-10.682 19.75-21.864 23.297-30.095 1.03-2.33 2.59-6.337 2.563-9.257-.01-1.598-.39-2.646-1.164-3.33-1.073-.927-2.99-2.053-6.9-2.068-6.715-.03-19.288 3.655-41.12 18.458-5.825 3.94-10.937 5.635-15.43 5.637-4.253.008-7.837-1.558-10.628-3.813-2.8-2.258-4.874-5.167-6.434-8.02-3.106-5.706-4.183-11.248-4.21-11.36-.213-1.084.494-2.135 1.576-2.347 1.082-.214 2.134.492 2.348 1.577.004 0 .13.668.456 1.84.324 1.176.837 2.81 1.57 4.62 1.46 3.623 3.847 7.896 7.2 10.57 2.243 1.794 4.842 2.925 8.122 2.933 3.46 0 7.803-1.31 13.186-4.95 22.17-14.99 35.23-19.12 43.364-19.148 4.712-.015 7.78 1.495 9.545 3.07 1.927 1.7 2.53 4.114 2.52 6.33-.027 4.137-1.846 8.374-2.896 10.85-4.043 9.238-13.703 20.425-24.082 31.27-10.373 10.812-21.477 21.172-28.23 28.15-5.31 5.45-11.715 11.686-20.74 11.734-8.47-.03-18.11-5.56-30.16-20.56z" fill="#010101"/><path d="M258.58 85.103c.158-2.017.264-4.048.264-6.104 0-42.525-34.476-77-77-77s-77 34.474-77 77c0 2.056.104 4.088.263 6.103-27.325 22.29-44.774 56.225-44.76 94.237v.086c.022 67.102 54.438 121.48 121.54 121.46s121.49-54.45 121.47-121.55v-.086c-.02-37.98-17.46-71.88-44.77-94.147z" fill="#8B5D3B"/><path d="M181.85 302.88v.002h-.013c-68.183-.01-123.46-55.265-123.48-123.45v-.13c0-38.24 17.394-72.43 44.69-95.08-.117-1.714-.192-3.45-.192-5.215.002-43.632 35.37-79 79-79s78.998 35.37 79 79c0 1.766-.075 3.502-.192 5.216 27.287 22.638 44.678 56.81 44.69 95.038v.086l-.002.027c0 .007.002.017.003.017-.002 68.187-55.263 123.47-123.46 123.5l-.05-.01zm-.02 0v-.003zm.12-4c65.954-.056 119.39-53.54 119.39-119.5v-.128c-.015-37.36-17.167-70.69-44.025-92.6l1.265-1.55 1.993.154-1.993-.155-1.265 1.55c-.508-.415-.782-1.053-.73-1.706.155-1.982.258-3.96.258-5.947-.002-20.717-8.392-39.454-21.968-53.034-13.58-13.58-32.32-21.97-53.03-21.97-20.717 0-39.456 8.39-53.034 21.964-13.58 13.58-21.97 32.318-21.97 53.035 0 1.99.102 3.967.258 5.945.05.654-.222 1.292-.73 1.707-26.87 21.92-44.024 55.27-44.024 92.644v.13c.02 65.98 53.52 119.46 119.5 119.45 0 .002 0 0 .054 0h.04z" fill="#010101"/><path d="M68.26 186.44s25.45 42.492-11.96 54.842c-48.467 16-54.3 33.47-54.3 41.3 0 7.834 9.427 12.105 14 14 21.596 8.945 70.166 1.377 93.5 0 17.527-1.034 38-4.5 30-63.5" fill="#8B5D3B"/><path d="M15.234 298.43c-2.336-.973-5.99-2.56-9.18-5.044C2.892 290.936.007 287.37 0 282.582c-.023-4.425 1.73-11.382 9.577-19.017 7.842-7.655 21.684-16.118 46.096-24.182 7.6-2.52 12.265-6.215 15.12-10.434 2.847-4.225 3.92-9.084 3.922-14.067.02-10.163-4.597-20.608-6.914-25.1-.77-1.502-1.256-2.314-1.256-2.315v.002c-.57-.95-.26-2.177.686-2.744.947-.568 2.177-.26 2.744.687.06.152 8.695 14.383 8.74 29.47.003 5.544-1.207 11.268-4.605 16.304-3.393 5.04-8.935 9.28-17.182 11.996-24.054 7.937-37.362 16.207-44.554 23.243-7.188 7.04-8.353 12.73-8.374 16.14-.01 3.047 1.82 5.533 4.515 7.65 2.666 2.087 6.012 3.58 8.25 4.502 7.292 3.04 18.396 4.16 30.598 4.145 21.738.004 46.946-3.402 62.02-4.293 7.377-.423 14.782-1.334 20.255-6.156 5.48-4.79 9.638-13.89 9.646-31.916 0-6.52-.548-14.182-1.765-23.16-.15-1.097.616-2.105 1.712-2.253 1.094-.148 2.102.616 2.25 1.713 1.238 9.123 1.803 16.957 1.803 23.7.008 18.55-4.306 29.042-11.01 34.925-6.71 5.85-15.197 6.688-22.658 7.14-14.8.865-40.146 4.3-62.254 4.303-12.442-.02-23.87-1.05-32.122-4.45z" fill="#010101"/><g><path d="M295.44 186.44s-25.45 42.492 11.96 54.842c48.467 16 54.3 33.466 54.3 41.3 0 7.833-9.428 12.104-14 14-21.596 8.944-70.165 1.376-93.497 0-17.524-1.035-37.995-4.5-29.996-63.5" fill="#8B5D3B"/><path d="M254.08 298.58c-7.46-.452-15.944-1.288-22.655-7.14-6.704-5.88-11.02-16.375-11.01-34.925 0-6.74.564-14.576 1.806-23.698.148-1.098 1.156-1.862 2.25-1.715 1.094.147 1.86 1.155 1.714 2.25-1.22 8.98-1.77 16.645-1.77 23.163.01 18.027 4.17 27.128 9.647 31.917 5.473 4.82 12.878 5.73 20.255 6.155 15.068.89 40.276 4.297 62.015 4.293 12.203.015 23.307-1.105 30.6-4.144 2.235-.923 5.584-2.418 8.25-4.503 2.693-2.115 4.523-4.603 4.515-7.65-.02-3.406-1.185-9.1-8.372-16.157-7.19-7.036-20.5-15.306-44.556-23.243-8.248-2.715-13.79-6.955-17.182-11.995-3.4-5.038-4.61-10.76-4.607-16.304.046-15.087 8.684-29.317 8.742-29.47.567-.946 1.796-1.255 2.744-.686.945.567 1.254 1.794.687 2.742 0 .002-.486.813-1.255 2.313-.77 1.503-1.8 3.658-2.83 6.246-2.062 5.174-4.093 12.084-4.087 18.853.004 4.98 1.076 9.844 3.923 14.066 2.856 4.218 7.52 7.915 15.12 10.435 24.413 8.063 38.256 16.526 46.097 24.18 7.848 7.636 9.602 14.592 9.58 19.02-.008 4.785-2.895 8.35-6.057 10.803-3.19 2.48-6.843 4.07-9.18 5.044-8.252 3.397-19.68 4.436-32.13 4.45-22.08.01-47.42-3.43-62.22-4.29z" fill="#010101"/></g><g><circle cy="121.03" cx="181.85" r="18" fill="#C49A6B"/><path d="M161.85 121.03c0-11.048 8.953-20 20-20v4c-8.837.016-15.984 7.163-16 16 .016 8.834 7.164 15.984 16 16 8.834-.016 15.982-7.165 16-16-.018-8.837-7.165-15.984-16-16v-4c11.045 0 19.998 8.952 20 20-.002 11.045-8.954 19.998-20 20-11.04 0-20-8.95-20-20z" fill="#010101"/><path d="M225.1 120c-.683 7.808-11.805 62.044-19.61 61.36-7.808-.682-9.343-56.026-8.66-63.834.683-7.807 7.565-13.582 15.373-12.9 7.82.68 13.59 7.57 12.9 15.37z" fill="#FFF"/><path d="M205.41 183.36l-.09-.007c-1.938-.225-3.04-1.583-3.872-2.996-.843-1.472-1.504-3.32-2.104-5.524-1.188-4.395-2.083-10.188-2.77-16.468-1.37-12.553-1.887-26.99-1.89-35.227.003-2.62.05-4.588.155-5.785.74-8.428 7.802-14.78 16.11-14.78.47 0 .948.02 1.43.063 8.428.742 14.776 7.802 14.776 16.11 0 .473-.02.948-.062 1.42l-2-.15 1.992.175c-.494 5.45-5.355 30.123-10.936 46.86-1.878 5.58-3.775 10.223-5.842 13.166-1.197 1.62-2.47 3.064-4.678 3.164h-.22zm-6.59-65.65c-.085.93-.14 2.88-.14 5.43 0 6.848.37 18.225 1.305 29.043.907 10.78 2.505 21.19 4.55 25.46.447 1.008.945 1.554 1.126 1.702.055-.027.14-.077.247-.16.28-.214.694-.653 1.143-1.29.903-1.27 1.94-3.295 2.974-5.79 2.077-4.996 4.19-11.887 6.08-19.02 3.778-14.235 6.7-29.684 7.003-33.255.03-.37.047-.73.045-1.08.002-6.245-4.78-11.575-11.133-12.126-.357-.033-.715-.048-1.072-.048h-.004c-6.26 0-11.58 4.79-12.14 11.14z" fill="#010101"/><g><path d="M166.87 117.53c.682 7.808-.852 63.152-8.66 63.835s-18.93-53.554-19.61-61.36c-.685-7.808 5.09-14.69 12.898-15.374 7.81-.68 14.69 5.09 15.37 12.9z" fill="#FFF"/><path d="M153.38 180.2c-1.19-1.69-2.298-3.914-3.403-6.568-2.197-5.297-4.334-12.295-6.253-19.53-3.834-14.51-6.744-29.744-7.12-33.93-.043-.48-.063-.957-.063-1.43 0-8.312 6.354-15.37 14.78-16.11.478-.043.954-.065 1.428-.065 8.31.002 15.37 6.353 16.112 14.78l-1.993.175-1.99.173c-.555-6.346-5.885-11.128-12.128-11.128-.355 0-.714.017-1.08.047-6.345.553-11.13 5.88-11.13 12.126 0 .354.018.715.05 1.082.254 3.005 2.396 14.616 5.34 26.7 2.92 12.09 6.78 24.967 10.107 30.427.838 1.448 1.715 2.265 1.99 2.39.02-.014.042-.033.07-.058.155-.132.417-.443.69-.925.562-.965 1.17-2.568 1.71-4.578 1.094-4.03 1.98-9.694 2.652-15.857 1.347-12.334 1.864-26.715 1.862-34.792.002-2.548-.054-4.497-.136-5.434l1.99-.173 1.994-.175c.103 1.2.15 3.166.153 5.784-.006 10.817-.882 32.286-3.44 46.21-.872 4.663-1.865 8.447-3.318 11.01-.83 1.413-1.933 2.77-3.887 2.998-.1.01-.204.013-.305.015-2.2-.11-3.48-1.56-4.68-3.18z" fill="#010101"/></g><g><path d="M207.26 73.92h-50.804c-17.45 0-31.598 12.787-31.598 28.562s14.147 28.563 31.598 28.563c10.412 0 19.645-4.555 25.402-11.577 5.757 7.022 14.99 11.577 25.402 11.577 17.45 0 31.598-12.788 31.598-28.563s-14.15-28.56-31.6-28.56z" fill="#A97C50"/><path d="M181.85 122.34c-6.167 6.515-15.272 10.603-25.402 10.605-18.358-.03-33.468-13.485-33.5-30.462.032-16.98 15.142-30.433 33.5-30.464h50.805v3.8h-50.805c-8.26-.003-15.706 3.026-21.068 7.874-5.364 4.854-8.628 11.48-8.63 18.79.002 7.306 3.267 13.93 8.628 18.785 5.364 4.847 12.81 7.876 21.07 7.874 9.856.002 18.552-4.314 23.933-10.88.36-.442.9-.696 1.47-.696s1.108.254 1.47.695c5.38 6.566 14.078 10.883 23.934 10.88 8.257.003 15.706-3.026 21.067-7.874 5.364-4.855 8.627-11.48 8.63-18.787-.003-7.31-3.266-13.934-8.63-18.79-5.36-4.847-12.81-7.876-21.066-7.874v-3.8c18.355.03 33.468 13.484 33.496 30.463-.028 16.977-15.14 30.43-33.496 30.462-10.14.01-19.24-4.08-25.41-10.59z" fill="#010101"/></g><g><path d="M232.17 46.36c0 11.3-9.16 20.46-20.46 20.46-11.298 0-20.458-9.16-20.458-20.46s9.16-20.46 20.46-20.46c11.31 0 20.46 9.16 20.46 20.46z" fill="#FFF"/><path d="M189.26 46.36c.002-12.404 10.056-22.457 22.46-22.46 12.404.003 22.457 10.056 22.46 22.46-.003 12.405-10.056 22.458-22.46 22.46-12.41-.003-22.46-10.055-22.46-22.46zm4 0c.017 10.194 8.264 18.44 18.46 18.46 10.192-.02 18.44-8.267 18.456-18.46-.017-10.193-8.264-18.44-18.457-18.46-10.2.02-18.45 8.267-18.46 18.46z" fill="#010101"/><g><path d="M213.36 50.292c0 3.65-2.96 6.61-6.61 6.61s-6.608-2.96-6.608-6.61c0-3.65 2.96-6.61 6.61-6.61s6.61 2.96 6.61 6.61z" fill="#010101"/></g><g><path d="M172.45 46.36c0 11.3-9.16 20.46-20.46 20.46s-20.458-9.16-20.458-20.46 9.16-20.46 20.46-20.46 20.46 9.16 20.46 20.46z" fill="#FFF"/><path d="M129.53 46.36c.002-12.405 10.056-22.46 22.46-22.46 12.404 0 22.458 10.055 22.458 22.46 0 12.403-10.054 22.457-22.46 22.46-12.4-.003-22.46-10.057-22.46-22.46zm4 0c.02 10.193 8.266 18.44 18.46 18.458 10.192-.02 18.44-8.265 18.458-18.458-.02-10.194-8.266-18.442-18.46-18.46-10.19.018-18.44 8.267-18.46 18.46z" fill="#010101"/><g><path d="M164.55 50.292c0 3.65-2.96 6.61-6.61 6.61s-6.61-2.96-6.61-6.61c0-3.65 2.96-6.61 6.61-6.61s6.61 2.96 6.61 6.61z" fill="#010101"/></g></g></g><g><path d="M115.38 135.83c-1.1-.086-1.924-1.05-1.836-2.15 1.426-18.033 16.706-31.638 34.75-31.634.942 0 1.89.037 2.846.113 1.1.087 1.924 1.05 1.836 2.15-.086 1.1-1.05 1.923-2.152 1.837-.85-.067-1.695-.1-2.53-.1-16.022 0-29.517 12.06-30.762 27.947-.082 1.046-.958 1.843-1.99 1.843-.07 0-.12 0-.17-.01z"/><path d="M108.18 121.43c-1.1-.088-1.923-1.052-1.837-2.153 1.428-18.032 16.706-31.636 34.75-31.634.94 0 1.893.04 2.846.114 1.1.086 1.923 1.05 1.834 2.15-.086 1.102-1.05 1.924-2.15 1.836-.852-.067-1.696-.1-2.53-.1-16.024.004-29.515 12.06-30.763 27.948-.08 1.05-.958 1.845-1.992 1.845-.07.01-.12.01-.17 0zM122.57 150.23c-1.1-.086-1.924-1.05-1.835-2.15 1.427-18.034 16.707-31.638 34.75-31.634.943 0 1.892.037 2.846.113 1.102.085 1.925 1.05 1.836 2.15-.086 1.1-1.05 1.924-2.15 1.835-.85-.066-1.695-.1-2.53-.1-16.022.003-29.516 12.06-30.764 27.95-.082 1.045-.957 1.84-1.99 1.84-.07.01-.12 0-.18 0z"/><g><path d="M246.17 134c-1.252-15.888-14.743-27.944-30.764-27.948-.836 0-1.68.033-2.53.1v.002c-1.102.087-2.064-.736-2.152-1.836-.087-1.103.734-2.066 1.837-2.153.954-.075 1.903-.112 2.847-.112 18.043-.004 33.32 13.602 34.75 31.633.086 1.103-.734 2.066-1.835 2.15-.054.005-.106.007-.16.007-1.04 0-1.92-.8-2-1.84z"/><path d="M253.37 119.6c-1.25-15.89-14.742-27.945-30.762-27.95-.836 0-1.68.034-2.53.103-1.102.087-2.064-.734-2.15-1.836-.09-1.1.733-2.066 1.835-2.153.954-.075 1.902-.112 2.846-.112 18.04-.004 33.318 13.602 34.75 31.633.087 1.102-.736 2.066-1.836 2.15-.054.005-.106.007-.16.007-1.04 0-1.92-.8-2-1.84zM238.97 148.39c-1.25-15.89-14.743-27.944-30.764-27.948-.837 0-1.68.033-2.528.102-1.103.087-2.064-.735-2.152-1.834-.09-1.102.733-2.067 1.835-2.154.954-.075 1.902-.114 2.847-.114 18.044-.002 33.32 13.603 34.752 31.634.086 1.102-.736 2.064-1.838 2.15-.054.005-.106.007-.16.007-1.03 0-1.91-.8-1.99-1.85z"/></g></g></g><g><path d="M120.38 269.44c-17.732-7.742-36.64-3.63-38.632.93-2.17 4.973 7.855 21.198 25.588 28.94 13.74 6 27.232 7.122 34.284 3.48.167 6.79 5.12 13.73 12.998 17.168 3.028 1.322 6.123 1.982 9.104 2.032-4.873-5.076-6.752-11.87-4.22-17.666s8.79-9.035 15.825-8.91c-2.062-2.153-4.637-4.004-7.665-5.325-7.877-3.44-16.343-2.34-21.44 2.162-2.12-7.63-12.1-16.8-25.84-22.8z" fill="#B7BEC8"/><path d="M163.68 323.99c-3.25-.055-6.608-.775-9.87-2.2-7.452-3.265-12.6-9.445-13.888-16.148-2.58.838-5.556 1.227-8.82 1.23-7.203-.006-15.84-1.918-24.574-5.728-8.377-3.66-15.065-9.113-19.705-14.5-4.616-5.44-7.298-10.59-7.377-14.66.002-.826.126-1.642.46-2.41 1.194-2.43 3.69-3.642 7.014-4.76 3.346-1.052 7.642-1.704 12.493-1.708 6.62.002 14.27 1.234 21.76 4.503l-.802 1.83-.797 1.833c-6.904-3.017-14.032-4.167-20.16-4.165-4.482-.004-8.432.618-11.293 1.52-2.883.834-4.558 2.255-4.547 2.544-.057.126-.126.396-.126.812-.078 2.153 2.115 7.145 6.41 12.053 4.267 4.962 10.52 10.06 18.27 13.442 8.288 3.622 16.48 5.397 22.976 5.392 3.987.006 7.32-.678 9.593-1.857.612-.317 1.344-.296 1.935.057.594.35.963.982.982 1.67.113 5.837 4.526 12.223 11.8 15.384 1.26.552 2.53.976 3.793 1.28-1.818-2.99-2.835-6.3-2.838-9.64-.002-2.116.413-4.237 1.294-6.24 2.285-5.212 7.103-8.524 12.72-9.668-1.084-.73-2.26-1.384-3.526-1.936-2.89-1.262-5.857-1.855-8.652-1.855-4.222 0-8.03 1.35-10.663 3.686-.517.455-1.236.614-1.894.42-.66-.197-1.176-.722-1.358-1.384-1.715-6.58-11.31-15.735-24.715-21.516l.798-1.832.802-1.832c12.658 5.594 22.313 13.575 25.97 21.466 3.166-1.983 7.016-3.007 11.06-3.01 3.358.003 6.86.71 10.25 2.19 3.278 1.432 6.07 3.436 8.31 5.775.565.59.714 1.46.38 2.204-.333.744-1.083 1.207-1.9 1.18-.08-.004-.186-.004-.315-.004-6.283.015-11.518 2.914-13.602 7.718-.65 1.483-.958 3.04-.958 4.637-.006 3.686 1.686 7.612 4.788 10.84.56.584.715 1.445.392 2.186-.32.733-1.04 1.202-1.836 1.202.01.01 0 .01-.01.01z" fill="#010101"/><path d="M98.342 265.16c4.522.96 9.414 2.483 14.383 4.653 16.883 7.37 28.17 18.898 25.188 25.73-2.982 6.827-19.104 6.382-35.987-.99-3.312-1.446-6.39-3.044-9.206-4.743 3.973 3.61 8.877 6.988 14.612 9.493 13.74 6 27.24 7.123 34.292 3.48.166 6.79 5.104 13.74 12.98 17.18 3.03 1.324 6.123 1.976 9.104 2.024-4.873-5.076-6.745-11.87-4.215-17.666 2.53-5.796 8.795-9.04 15.828-8.915-2.06-2.154-4.64-3.973-7.67-5.293-7.875-3.44-16.345-2.354-21.44 2.146-2.123-7.647-12.093-16.81-25.832-22.81-7.6-3.32-15.41-4.42-22.028-4.28z" fill="#010101" opacity=".314"/><g><path d="M100.87 272.56c1.146 1.557.816 3.746-.74 4.896-1.556 1.147-3.747.815-4.894-.74s-.816-3.746.74-4.894c1.552-1.16 3.744-.83 4.895.73z" fill="#010101"/></g></g></svg>